<?xml version="1.0" standalone="no"?>
<!DOCTYPE svg PUBLIC "-//W3C//DTD SVG 20010904//EN"
 "http://www.w3.org/TR/2001/REC-SVG-20010904/DTD/svg10.dtd">
<svg version="1.0" xmlns="http://www.w3.org/2000/svg"
 width="672.000000pt" height="672.000000pt" viewBox="0 0 672.000000 672.000000"
 preserveAspectRatio="xMidYMid meet">
<metadata>
Created by potrace 1.14, written by Peter Selinger 2001-2017
</metadata>
<g transform="translate(0.000000,672.000000) scale(0.100000,-0.100000)"
fill="#000000" stroke="none">
<path d="M40 5260 c0 -1161 3 -1460 13 -1461 16 -1 304 -1 342 0 l30 1 0 1258
c-1 691 0 1262 2 1267 2 7 438 10 1283 10 857 0 1280 3 1281 10 1 5 2 92 3
192 l1 183 -1477 0 -1478 0 0 -1460z"/>
<path d="M3739 6713 c-7 -42 -2 -373 6 -376 5 -2 581 -3 1278 -3 836 1 1271
-2 1275 -9 4 -5 7 -573 7 -1262 0 -688 3 -1254 7 -1258 4 -4 89 -7 190 -8
l183 -1 3 1462 2 1462 -1475 0 c-811 0 -1476 -3 -1476 -7z"/>
<path d="M2187 5784 c-1 -1 -51 -4 -112 -8 -226 -12 -453 -100 -624 -241 -25
-20 -109 -105 -147 -147 -89 -99 -198 -323 -220 -452 -2 -17 -7 -40 -11 -50
-17 -59 -17 -276 1 -371 21 -107 68 -242 114 -325 108 -194 292 -367 492 -462
55 -27 211 -77 259 -84 150 -22 343 -22 476 1 131 23 168 31 234 51 31 10 61
18 66 20 39 8 245 96 265 112 4 3 3 614 -3 931 l-2 124 -350 -1 c-192 0 -368
-1 -391 -1 l-41 -1 0 -165 0 -165 211 -2 211 -3 1 -238 1 -238 -30 -16 c-37
-18 -133 -53 -167 -59 -14 -3 -33 -7 -42 -10 -43 -13 -72 -16 -185 -18 -137
-4 -207 5 -296 36 -216 75 -368 246 -436 493 -27 101 -35 305 -15 392 7 29 10
53 7 53 -3 0 1 7 8 17 8 9 13 17 11 17 -5 1 7 33 30 86 40 89 117 182 217 263
32 26 130 74 197 97 117 41 268 46 417 15 89 -18 269 -107 311 -154 11 -12 23
-21 27 -21 4 0 66 59 137 132 l130 131 -27 22 c-105 86 -319 186 -444 209 -15
2 -35 7 -45 10 -34 9 -227 26 -235 20z"/>
<path d="M3731 5730 c-13 -8 -9 -2040 3 -2042 6 0 88 -2 181 -3 l170 -1 -1
440 c0 243 1 446 3 451 2 7 155 10 471 9 257 0 472 -2 479 -3 8 -1 11 -111 12
-428 0 -236 0 -437 0 -448 1 -20 7 -20 174 -19 94 1 177 2 183 3 8 1 11 278
11 1020 l0 1019 -21 4 c-11 2 -93 3 -181 3 l-160 0 -5 -409 -5 -410 -478 0
-477 -1 -1 40 c0 22 -1 205 -1 408 0 202 -3 368 -7 368 -22 4 -344 3 -350 -1z"/>
<path d="M1161 2848 c-1 -57 -1 -110 -1 -118 0 -8 -1 -44 0 -80 0 -36 0 -72 0
-80 -1 -8 -1 -44 0 -80 0 -36 0 -72 0 -80 -1 -8 -1 -44 0 -80 0 -36 0 -72 0
-80 -1 -8 -1 -44 0 -80 0 -36 0 -72 0 -80 -1 -8 -1 -44 0 -80 0 -36 0 -72 0
-80 -1 -8 -1 -44 0 -80 0 -36 0 -72 0 -80 -1 -8 -1 -44 -1 -80 1 -36 0 -74 0
-85 0 -11 1 -35 3 -52 2 -18 0 -33 -5 -33 -4 0 -5 -5 -1 -12 9 -14 9 -182 0
-196 -3 -6 -3 -13 2 -16 4 -2 6 -22 5 -43 -2 -21 -3 -51 -2 -68 0 -16 1 -36 0
-42 -2 -26 -2 -39 2 -70 2 -18 -1 -33 -6 -33 -4 0 -5 -5 -1 -12 4 -6 7 -40 7
-75 l0 -64 436 2 c378 1 449 3 532 19 242 46 435 145 595 305 44 44 98 108
119 140 37 58 102 190 111 224 2 9 10 43 19 76 23 91 29 150 29 270 -1 114 -5
156 -28 270 -36 175 -145 360 -284 484 -85 76 -123 101 -225 150 -98 47 -193
76 -317 98 -19 4 -246 8 -504 10 -258 2 -472 6 -477 8 -4 3 -8 -41 -8 -97z
m892 -252 c21 -3 48 -8 60 -12 12 -4 29 -9 37 -10 72 -11 179 -59 246 -110 64
-49 102 -90 142 -157 30 -50 75 -157 66 -157 -2 0 1 -11 6 -25 22 -58 32 -232
18 -325 -10 -71 -29 -142 -39 -154 -5 -6 -9 -16 -9 -24 0 -28 -74 -135 -131
-192 -102 -99 -272 -175 -438 -195 -30 -4 -63 -9 -75 -11 -30 -6 -397 -6 -404
0 -4 4 -6 1356 -2 1384 0 6 481 -5 523 -12z"/>
<path d="M3728 2943 c-5 -25 -4 -323 1 -324 3 -1 150 -3 326 -4 176 -1 322 -3
325 -4 10 -2 5 -1381 -5 -1382 -5 -1 -154 -2 -330 -3 l-320 -2 -1 -167 -1
-167 844 0 843 0 1 23 c1 26 1 275 0 297 -1 13 -43 15 -330 15 l-330 -1 0 693
c-1 543 2 693 12 694 6 1 149 3 317 4 168 1 312 3 320 4 13 1 15 26 14 164 l0
162 -842 3 c-463 1 -843 -1 -844 -5z"/>
<path d="M40 1462 l0 -1462 1477 2 1478 3 -1 190 0 190 -1280 0 c-703 -1
-1281 2 -1284 6 -3 4 -5 575 -5 1268 l0 1261 -30 1 c-16 0 -103 1 -192 2
l-163 2 0 -1463z"/>
<path d="M6311 2920 c-4 -3 -7 -571 -6 -1263 0 -832 -3 -1261 -10 -1265 -5 -4
-581 -7 -1280 -8 -698 -1 -1272 -2 -1275 -3 -3 0 -5 -85 -5 -189 l0 -187 1478
-3 1477 -2 0 1460 0 1460 -22 1 c-97 4 -351 3 -357 -1z"/>
</g>
</svg>
