<?xml version="1.0" encoding="UTF-8" standalone="no"?>
<svg
   width="600"
   height="530"
   version="1.1"
   id="svg1"
   sodipodi:docname="bluesky.svg"
   inkscape:version="1.3.2 (091e20e, 2023-11-25, custom)"
   xmlns:inkscape="http://www.inkscape.org/namespaces/inkscape"
   xmlns:sodipodi="http://sodipodi.sourceforge.net/DTD/sodipodi-0.dtd"
   xmlns="http://www.w3.org/2000/svg"
   xmlns:svg="http://www.w3.org/2000/svg">
  <defs
     id="defs1" />
  <sodipodi:namedview
     id="namedview1"
     pagecolor="#ffffff"
     bordercolor="#666666"
     borderopacity="1.0"
     inkscape:showpageshadow="2"
     inkscape:pageopacity="0.0"
     inkscape:pagecheckerboard="0"
     inkscape:deskcolor="#d1d1d1"
     showgrid="false"
     inkscape:zoom="1.7264151"
     inkscape:cx="300.04372"
     inkscape:cy="265"
     inkscape:window-width="1920"
     inkscape:window-height="1171"
     inkscape:window-x="-9"
     inkscape:window-y="-9"
     inkscape:window-maximized="1"
     inkscape:current-layer="svg1" />
  <path
     d="M 160.00098,85.634223 C 216.66861,126.1559 277.62108,208.31698 299.99975,252.40939 322.38012,208.32022 383.32919,126.15508 439.99852,85.634223 480.88689,56.395402 547.13661,33.772066 547.13661,105.76072 c 0,14.37711 -8.65405,120.77522 -13.72973,138.04854 -17.64301,60.05399 -81.93354,75.37107 -139.12101,66.10046 99.9626,16.2051 125.39213,69.88225 70.47406,123.55941 -104.30028,101.94341 -149.90981,-25.57798 -161.60194,-58.25361 -2.14242,-5.99022 -3.14495,-8.79251 -3.15969,-6.40963 -0.0148,-2.38296 -1.01727,0.4194 -3.15969,6.40963 -11.68701,32.67563 -57.2957,160.20026 -161.60194,58.25361 C 80.317746,379.79197 105.74642,326.11157 205.71073,309.90972 148.52155,319.18033 84.230178,303.86317 66.589719,243.80926 61.513869,226.53432 52.859988,120.13621 52.859988,105.76072 c 0,-71.988654 66.251432,-49.365318 107.138092,-20.126497 z"
     fill="#1185fe"
     id="path1"
     style="fill:#ffffff;fill-opacity:1;stroke-width:0.83171" />
</svg>
