<svg id="Ebene_1" data-name="Ebene 1" xmlns="http://www.w3.org/2000/svg" viewBox="9 6.98 241.18 41.9"><path id="Pfad_425" data-name="Pfad 425" d="M76.07,26.87a12.8,12.8,0,0,1-6.15,1.47,8.57,8.57,0,0,1-3.17-.55,7.25,7.25,0,0,1-2.47-1.58,7.16,7.16,0,0,1-1.63-2.44,8.43,8.43,0,0,1-.59-3.18,8.77,8.77,0,0,1,.59-3.24,7.23,7.23,0,0,1,1.63-2.48,7,7,0,0,1,2.47-1.59,8.79,8.79,0,0,1,3.17-.56,11.89,11.89,0,0,1,3.19.41,6.5,6.5,0,0,1,2.66,1.46l-2,2a5,5,0,0,0-1.73-1.08,6.08,6.08,0,0,0-2.15-.37,5.16,5.16,0,0,0-2.09.41,4.66,4.66,0,0,0-1.61,1.13,5.08,5.08,0,0,0-1,1.69,5.88,5.88,0,0,0-.37,2.08,6.36,6.36,0,0,0,.37,2.2,5,5,0,0,0,1,1.74,4.74,4.74,0,0,0,1.61,1.16,5,5,0,0,0,2.09.42,9.42,9.42,0,0,0,1.9-.19,5.29,5.29,0,0,0,1.58-.59v-3.5h-3v-2.4h5.69ZM79.2,13.1h9.85v2.39h-7.2v3.66h6.82v2.39H81.84v4h7.58V28H79.2ZM92,13.1H97.2a10.37,10.37,0,0,1,2.07.2A5.38,5.38,0,0,1,101,14a3.59,3.59,0,0,1,1.24,1.3,4.17,4.17,0,0,1,.46,2.08,4.15,4.15,0,0,1-.89,2.71,3.86,3.86,0,0,1-2.55,1.32L103.24,28h-3.19l-3.44-6.3H94.67V28H92Zm4.7,6.3c.38,0,.76,0,1.14,0a3.53,3.53,0,0,0,1-.26,1.67,1.67,0,0,0,.76-.61,1.92,1.92,0,0,0,.3-1.14,1.86,1.86,0,0,0-.28-1.05,1.72,1.72,0,0,0-.71-.6,3.3,3.3,0,0,0-1-.26,8.94,8.94,0,0,0-1-.06H94.67v4Zm8.59-6.3h4l4,10.41,4-10.41h4V28H118.8V15.62h0L114.25,28H112.4l-4.52-12.35h0V28h-2.52Zm24.19,0h2.29L138.21,28h-3l-1.38-3.4h-6.45L126,28h-3Zm3.36,9.2-2.29-6.05-2.33,6.05Zm7-9.2h3.5l7.2,11h0v-11h2.65V28H149.9l-7.35-11.4h0V28h-2.64Zm22.93,0h2.64V19h7V13.1h2.65V28H172.4V21.41h-7V28H162.8Zm15.5,0h2.64V28H178.3Zm13.19,3.19a2.48,2.48,0,0,0-1.13-.89,3.94,3.94,0,0,0-1.48-.29,4.41,4.41,0,0,0-.89.1,2.47,2.47,0,0,0-.78.34,1.79,1.79,0,0,0-.56.6,1.89,1.89,0,0,0-.21.87,1.38,1.38,0,0,0,.53,1.16,5.23,5.23,0,0,0,1.3.69c.52.19,1.08.38,1.7.57a6.62,6.62,0,0,1,1.7.75,4.41,4.41,0,0,1,1.3,1.28,3.76,3.76,0,0,1,.52,2.12,4.54,4.54,0,0,1-.44,2.09,4.18,4.18,0,0,1-1.18,1.49,5.06,5.06,0,0,1-1.73.88,6.93,6.93,0,0,1-2.08.29,7.75,7.75,0,0,1-2.66-.46,5.09,5.09,0,0,1-2.21-1.55l2-1.94a3.35,3.35,0,0,0,1.27,1.15,3.59,3.59,0,0,0,1.67.41,3.2,3.2,0,0,0,.92-.13,2.78,2.78,0,0,0,.84-.38,1.87,1.87,0,0,0,.61-.64,1.65,1.65,0,0,0,.23-.89,1.56,1.56,0,0,0-.53-1.26,4.66,4.66,0,0,0-1.3-.74c-.52-.2-1.08-.4-1.7-.58a6.62,6.62,0,0,1-1.7-.75,4.11,4.11,0,0,1-1.3-1.26,3.71,3.71,0,0,1-.52-2.11,4,4,0,0,1,.47-2,4.27,4.27,0,0,1,1.24-1.4,5.42,5.42,0,0,1,1.75-.83,7.62,7.62,0,0,1,2-.27,7,7,0,0,1,2.27.35,5.37,5.37,0,0,1,2,1.18Zm7.81-.8h-4.56V13.1H206.5v2.39h-4.56V28H199.3Zm8.21,5.1a8.43,8.43,0,0,1,.59-3.25,7.3,7.3,0,0,1,1.62-2.48,7,7,0,0,1,2.48-1.58,9.6,9.6,0,0,1,6.35,0,6.86,6.86,0,0,1,2.5,1.56,7.26,7.26,0,0,1,1.64,2.48,8.72,8.72,0,0,1,.59,3.23,8.38,8.38,0,0,1-.59,3.17,7.27,7.27,0,0,1-1.64,2.46,7.61,7.61,0,0,1-2.5,1.61,9.16,9.16,0,0,1-3.19.6,8.74,8.74,0,0,1-3.16-.56,7.19,7.19,0,0,1-2.48-1.58,7.28,7.28,0,0,1-1.62-2.44,8.24,8.24,0,0,1-.59-3.18Zm2.77-.17a6.32,6.32,0,0,0,.37,2.2,5,5,0,0,0,1,1.74,4.7,4.7,0,0,0,1.6,1.16,5.44,5.44,0,0,0,4.19,0,4.79,4.79,0,0,0,1.62-1.15,5,5,0,0,0,1-1.74,6.56,6.56,0,0,0,.37-2.2,5.92,5.92,0,0,0-.37-2.08,5.19,5.19,0,0,0-1-1.69,4.6,4.6,0,0,0-1.62-1.13,5.56,5.56,0,0,0-4.19,0,4.75,4.75,0,0,0-1.6,1.13,5,5,0,0,0-1,1.69,5.71,5.71,0,0,0-.37,2.08ZM225.8,13.1H231a10.2,10.2,0,0,1,2.06.2,5.43,5.43,0,0,1,1.78.68,3.59,3.59,0,0,1,1.24,1.3,4.17,4.17,0,0,1,.46,2.08,4.15,4.15,0,0,1-.89,2.71,3.84,3.84,0,0,1-2.55,1.32L237,28h-3.19l-3.44-6.3h-1.94V28H225.8Zm4.7,6.3c.38,0,.76,0,1.13,0a3.38,3.38,0,0,0,1-.26,1.65,1.65,0,0,0,.77-.61,1.91,1.91,0,0,0,.29-1.14,1.78,1.78,0,0,0-.27-1.05,1.72,1.72,0,0,0-.71-.6,3.3,3.3,0,0,0-1-.26,9.07,9.07,0,0,0-1-.06h-2.29v4Zm11.38,2.2-5.58-8.5h3.32L243.27,19,247,13.1h3.15l-5.59,8.5V28h-2.65Z" style="fill:#0f256e"/><path id="Pfad_424" data-name="Pfad 424" d="M64.3,43.66h-.9V34.81h.9Zm9.13-1.35h0v-7.5h.9v8.85H73.23L68,36.09h0v7.57H67V34.81h1.12Zm8.22.53H83.4a4.6,4.6,0,0,0,1.76-.31,3.61,3.61,0,0,0,1.23-.81,3.2,3.2,0,0,0,.74-1.15,4,4,0,0,0,.23-1.33,4,4,0,0,0-.23-1.33,3.12,3.12,0,0,0-.74-1.15,3.64,3.64,0,0,0-1.23-.82,4.6,4.6,0,0,0-1.76-.3H81.65Zm-.9-8h2.94a5.15,5.15,0,0,1,1.65.28,4.5,4.5,0,0,1,1.5.83,4.17,4.17,0,0,1,1.09,1.38,4.77,4.77,0,0,1,0,3.87,4.17,4.17,0,0,1-1.09,1.38,4.33,4.33,0,0,1-1.5.83,4.89,4.89,0,0,1-1.65.28H80.75Zm17.36,4.43a4.27,4.27,0,0,0-.25-1.46,3.68,3.68,0,0,0-.72-1.22A3.52,3.52,0,0,0,96,35.72a3.6,3.6,0,0,0-4.19.84,3.68,3.68,0,0,0-.72,1.22,4.27,4.27,0,0,0-.25,1.46,4.21,4.21,0,0,0,.25,1.45,3.58,3.58,0,0,0,.72,1.22,3.48,3.48,0,0,0,1.14.84,3.91,3.91,0,0,0,3,0,3.38,3.38,0,0,0,1.14-.84,3.68,3.68,0,0,0,.72-1.22A4.25,4.25,0,0,0,98.11,39.24Zm1,0a5,5,0,0,1-.35,1.86,4.38,4.38,0,0,1-1,1.47,4.77,4.77,0,0,1-1.46,1,5,5,0,0,1-3.67,0,4.77,4.77,0,0,1-1.46-1,4.38,4.38,0,0,1-1-1.47,5.14,5.14,0,0,1,0-3.73,4.38,4.38,0,0,1,1-1.47,4.77,4.77,0,0,1,1.46-1,5,5,0,0,1,3.67,0,4.77,4.77,0,0,1,1.46,1,4.38,4.38,0,0,1,1,1.47,5,5,0,0,1,.35,1.87Zm9.41,3a3.1,3.1,0,0,1-.56.64,3.58,3.58,0,0,1-.75.52,4.23,4.23,0,0,1-.92.34,4.06,4.06,0,0,1-1,.13,5.05,5.05,0,0,1-1.84-.35,4.77,4.77,0,0,1-1.46-1,4.38,4.38,0,0,1-1-1.47,5.14,5.14,0,0,1,0-3.73,4.38,4.38,0,0,1,1-1.47,4.77,4.77,0,0,1,1.46-1,5.05,5.05,0,0,1,1.84-.35,4.71,4.71,0,0,1,1.65.33A3.36,3.36,0,0,1,108.29,36l-.79.59a2.14,2.14,0,0,0-.37-.42,2.57,2.57,0,0,0-.55-.38,3.27,3.27,0,0,0-.65-.26,2.42,2.42,0,0,0-.7-.1,3.64,3.64,0,0,0-1.53.31,3.48,3.48,0,0,0-1.14.84,3.68,3.68,0,0,0-.72,1.22,4.36,4.36,0,0,0,0,2.91,3.68,3.68,0,0,0,.72,1.22,3.52,3.52,0,0,0,1.14.84,3.64,3.64,0,0,0,1.53.31,4,4,0,0,0,.69-.06,3.07,3.07,0,0,0,.67-.21,2.63,2.63,0,0,0,.63-.41,3,3,0,0,0,.54-.64Zm8.16-1.9a5.12,5.12,0,0,1-.13,1.17,3,3,0,0,1-.49,1.14,2.7,2.7,0,0,1-1,.87,3.92,3.92,0,0,1-3.24,0,2.85,2.85,0,0,1-1-.87,3.13,3.13,0,0,1-.49-1.14,5.12,5.12,0,0,1-.13-1.17V34.81h.9v5.45a4,4,0,0,0,.12,1.09,2.53,2.53,0,0,0,.33.77,1.87,1.87,0,0,0,.47.5,2.29,2.29,0,0,0,.51.28A2.09,2.09,0,0,0,113,43l.41,0a2.73,2.73,0,0,0,.41,0,2.17,2.17,0,0,0,.5-.13,2.53,2.53,0,0,0,.51-.28,1.87,1.87,0,0,0,.47-.5,2.53,2.53,0,0,0,.33-.77,4,4,0,0,0,.12-1.09V34.81h.9ZM123.6,42l3-7.2H128v8.85h-.9V36h0l-3.2,7.65h-.48L120.16,36h0v7.65h-.9V34.81h1.37Zm8,.83h4.74v.82h-5.64V34.81h5.49v.83h-4.59v3h4.28v.82h-4.28Zm13.24-.53h0v-7.5h.9v8.85h-1.12l-5.28-7.57h0v7.57h-.9V34.81h1.12Zm6.48,1.35h-.9v-8h-3v-.83h6.83v.83h-3Zm8.85-7.39a2,2,0,0,0-1.71-.86,2.72,2.72,0,0,0-.69.09,2,2,0,0,0-.6.29,1.47,1.47,0,0,0-.43.5,1.53,1.53,0,0,0-.17.72,1.26,1.26,0,0,0,.34.93,2.6,2.6,0,0,0,.84.55,10.82,10.82,0,0,0,1.09.38,4.8,4.8,0,0,1,1.1.45,2.7,2.7,0,0,1,.84.74,2.1,2.1,0,0,1,.33,1.26,2.13,2.13,0,0,1-.26,1.08,2.39,2.39,0,0,1-.67.81,3.26,3.26,0,0,1-2,.67,3.93,3.93,0,0,1-1.55-.3,2.84,2.84,0,0,1-1.24-1l.81-.58a2.3,2.3,0,0,0,.8.78,2.44,2.44,0,0,0,1.22.29,2.24,2.24,0,0,0,.67-.11,1.85,1.85,0,0,0,.61-.31,1.74,1.74,0,0,0,.44-.5,1.5,1.5,0,0,0,0-1.46,1.55,1.55,0,0,0-.51-.51,3.27,3.27,0,0,0-.73-.35l-.83-.27c-.29-.1-.57-.2-.84-.32a3,3,0,0,1-.73-.44,2,2,0,0,1-.51-.67,2.78,2.78,0,0,1,.05-2.14,2.44,2.44,0,0,1,.65-.78,3,3,0,0,1,.92-.47,3.7,3.7,0,0,1,1-.15,3.94,3.94,0,0,1,1.36.24,3,3,0,0,1,1.14.84Zm8.05,4.24h3.84l-1.91-4.65Zm-1.31,3.15h-1.05l3.85-8.85h.88l3.85,8.85h-1.05l-1-2.32h-4.52Zm15.45-1.35h0v-7.5h.9v8.85h-1.13l-5.27-7.57h0v7.57H176V34.81h1.13Zm4.43.53h1.75a4.59,4.59,0,0,0,1.75-.31,3.56,3.56,0,0,0,1.24-.81,3.31,3.31,0,0,0,.73-1.15,3.81,3.81,0,0,0,.24-1.33,3.73,3.73,0,0,0-.24-1.33,3.22,3.22,0,0,0-.73-1.15,3.58,3.58,0,0,0-1.24-.82,4.58,4.58,0,0,0-1.75-.3h-1.75Zm-.9-8h2.93a5.16,5.16,0,0,1,1.66.28,4.5,4.5,0,0,1,1.5.83,4.27,4.27,0,0,1,1.08,1.38,4.77,4.77,0,0,1,0,3.87A4.27,4.27,0,0,1,192,42.55a4.33,4.33,0,0,1-1.5.83,4.91,4.91,0,0,1-1.66.28h-2.93Zm14.41,8.85h-.9V34.81h.9ZM207.38,42l3-7.2h1.38v8.85h-.9V36h0l-3.2,7.65h-.47L203.94,36h0v7.65H203V34.81h1.38Zm8.25-1.5h3.83l-1.91-4.65Zm-1.32,3.15h-1.05l3.85-8.85H218l3.85,8.85h-1.05l-1-2.32h-4.52Zm15.59-7.22a3.19,3.19,0,0,0-1.07-.75,3.47,3.47,0,0,0-1.45-.28A3.51,3.51,0,0,0,224,37.78a4.36,4.36,0,0,0,0,2.91,3.68,3.68,0,0,0,.72,1.22,3.48,3.48,0,0,0,1.14.84,3.64,3.64,0,0,0,1.53.31,4.86,4.86,0,0,0,1.31-.17,4.67,4.67,0,0,0,1.14-.45v-3h-2.12v-.82h3V43a6.33,6.33,0,0,1-1.64.66,7.05,7.05,0,0,1-1.71.24,5,5,0,0,1-1.83-.35,4.77,4.77,0,0,1-1.46-1,4.38,4.38,0,0,1-1-1.47,5.14,5.14,0,0,1,0-3.73,4.38,4.38,0,0,1,1-1.47,4.77,4.77,0,0,1,1.46-1,5,5,0,0,1,1.83-.35,5.22,5.22,0,0,1,1.84.3,3.87,3.87,0,0,1,1.36.89Zm4.41,6.4h4.74v.82h-5.64V34.81h5.49v.83h-4.59v3h4.29v.82h-4.29Zm11-6.57a2,2,0,0,0-1.71-.86,2.61,2.61,0,0,0-.69.09,2,2,0,0,0-.61.29,1.47,1.47,0,0,0-.43.5,1.52,1.52,0,0,0-.16.72,1.23,1.23,0,0,0,.34.93,2.56,2.56,0,0,0,.83.55,11,11,0,0,0,1.1.38,4.73,4.73,0,0,1,1.09.45,2.6,2.6,0,0,1,.84.74,2.18,2.18,0,0,1,.34,1.26A2.36,2.36,0,0,1,246,42.4a2.39,2.39,0,0,1-.67.81,3.16,3.16,0,0,1-.94.5,3.12,3.12,0,0,1-1,.18,4.12,4.12,0,0,1-1.55-.31,2.84,2.84,0,0,1-1.24-1l.81-.58a2.22,2.22,0,0,0,.8.78,2.43,2.43,0,0,0,1.21.29,2.25,2.25,0,0,0,.68-.11,1.81,1.81,0,0,0,.6-.31,2,2,0,0,0,.45-.5,1.5,1.5,0,0,0,.17-.69,1.47,1.47,0,0,0-.19-.77,1.58,1.58,0,0,0-.52-.51,3.2,3.2,0,0,0-.72-.35l-.84-.27c-.29-.1-.56-.2-.84-.32a3,3,0,0,1-.72-.44,1.87,1.87,0,0,1-.51-.67A2.67,2.67,0,0,1,241,36a2.21,2.21,0,0,1,.65-.78,2.76,2.76,0,0,1,.92-.47,3.7,3.7,0,0,1,1-.15,4,4,0,0,1,1.36.24,3,3,0,0,1,1.14.84Z" style="fill:#0f256e"/><g id="Gruppe_305" data-name="Gruppe 305"><path id="Pfad_47" data-name="Pfad 47" d="M27.33,25a11,11,0,0,1-5.28,1.27,6.71,6.71,0,1,1,0-13.42h0a7.22,7.22,0,0,1,5,1.6l-1.68,1.7a4.76,4.76,0,0,0-3.33-1.24,4.32,4.32,0,0,0-4.39,4.27,2.81,2.81,0,0,0,0,.29c0,2.72,1.75,4.74,4.39,4.74a6.11,6.11,0,0,0,3-.66v-3H22.44V18.45h4.89Z" style="fill:#d0182c"/></g><g id="Gruppe_306" data-name="Gruppe 306"><path id="Pfad_48" data-name="Pfad 48" d="M31.93,13.14H34.2v5.09h6V13.14h2.28V25.91H40.18V20.29h-6v5.63H31.93Z" style="fill:#818181"/></g><g id="Gruppe_303" data-name="Gruppe 303"><path id="Pfad_46" data-name="Pfad 46" d="M16,30.55h5c3.35,0,6.49,2.06,6.49,6.39s-3.7,6.38-6.76,6.38H16Zm4,10.72c2.85,0,5.18-1.23,5.18-4.33s-2-4.33-4.8-4.33H18.26v8.66Z" style="fill:#0f256e"/></g><path id="Pfad_194" data-name="Pfad 194" d="M42.45,32.57V30.49H31.93v2.08h4.12v8.67H31.93v2.08H42.45V41.24H38.33V32.57Z" style="fill:#b2b197"/><g id="Pfad_193" data-name="Pfad 193"><polygon points="27.39 48.86 9 48.86 9 30.66 11.4 30.66 11.4 46.46 27.39 46.46 27.39 48.86" style="fill:#0f256e"/></g><g id="Pfad_196" data-name="Pfad 196"><polygon points="11.4 25.2 9 25.2 9 7 27.39 7 27.39 9.4 11.4 9.4 11.4 25.2" style="fill:#d0182c"/></g><g id="Pfad_197" data-name="Pfad 197"><polygon points="50.4 25.2 48 25.2 48 9.4 32.01 9.4 32.01 7 50.4 7 50.4 25.2" style="fill:#818181"/></g><g id="Pfad_195" data-name="Pfad 195"><polygon points="50.4 48.86 32.01 48.86 32.01 46.46 48 46.46 48 30.66 50.4 30.66 50.4 48.86" style="fill:#b2b197"/></g></svg>