<?xml version="1.0" encoding="UTF-8" standalone="no"?>
<!-- Generator: Adobe Illustrator 16.0.0, SVG Export Plug-In . SVG Version: 6.00 Build 0)  -->

<svg
   xmlns:dc="http://purl.org/dc/elements/1.1/"
   xmlns:cc="http://creativecommons.org/ns#"
   xmlns:rdf="http://www.w3.org/1999/02/22-rdf-syntax-ns#"
   xmlns:svg="http://www.w3.org/2000/svg"
   xmlns="http://www.w3.org/2000/svg"
   xmlns:sodipodi="http://sodipodi.sourceforge.net/DTD/sodipodi-0.dtd"
   xmlns:inkscape="http://www.inkscape.org/namespaces/inkscape"
   version="1.1"
   x="0px"
   y="0px"
   width="24px"
   height="24px"
   viewBox="0 0 24 24"
   style="enable-background:new 0 0 24 24;"
   xml:space="preserve"
   id="svg3743"
   sodipodi:docname="search.svg"
   inkscape:version="0.92.4 (5da689c313, 2019-01-14)"><metadata
   id="metadata3749"><rdf:RDF><cc:Work
       rdf:about=""><dc:format>image/svg+xml</dc:format><dc:type
         rdf:resource="http://purl.org/dc/dcmitype/StillImage" /></cc:Work></rdf:RDF></metadata><defs
   id="defs3747" /><sodipodi:namedview
   pagecolor="#ffffff"
   bordercolor="#666666"
   borderopacity="1"
   objecttolerance="10"
   gridtolerance="10"
   guidetolerance="10"
   inkscape:pageopacity="0"
   inkscape:pageshadow="2"
   inkscape:window-width="1028"
   inkscape:window-height="760"
   id="namedview3745"
   showgrid="false"
   inkscape:zoom="9.8333333"
   inkscape:cx="12"
   inkscape:cy="12"
   inkscape:window-x="379"
   inkscape:window-y="168"
   inkscape:window-maximized="0"
   inkscape:current-layer="svg3743" />
<g
   id="Icons"
   style="opacity:0.75"
   transform="matrix(-2.6751926,0,0,2.6751926,43.17043,-21.401541)">
	<path
   id="search"
   d="m 16.021,15.96 -2.374,-2.375 c -0.048,-0.047 -0.105,-0.079 -0.169,-0.099 0.403,-0.566 0.643,-1.26 0.643,-2.009 C 14.12,9.557 12.563,8 10.644,8 8.723,8 7.166,9.557 7.166,11.478 c 0,1.92 1.557,3.477 3.478,3.477 0.749,0 1.442,-0.239 2.01,-0.643 0.019,0.063 0.051,0.121 0.098,0.169 l 2.375,2.374 c 0.19,0.189 0.543,0.143 0.79,-0.104 0.247,-0.247 0.293,-0.601 0.104,-0.791 z m -5.377,-2.27 c -1.221,0 -2.213,-0.991 -2.213,-2.213 0,-1.221 0.992,-2.213 2.213,-2.213 1.222,0 2.213,0.992 2.213,2.213 -10e-4,1.222 -0.992,2.213 -2.213,2.213 z"
   inkscape:connector-curvature="0" />
</g>
<g
   id="Guides">
</g>
</svg>