<?xml version="1.0" encoding="utf-8"?>
<!-- Generator: Adobe Illustrator 27.5.0, SVG Export Plug-In . SVG Version: 6.00 Build 0)  -->
<svg version="1.1" id="Ebene_1" xmlns="http://www.w3.org/2000/svg" xmlns:xlink="http://www.w3.org/1999/xlink" x="0px" y="0px"
	 viewBox="0 0 998.2 465.9" style="enable-background:new 0 0 998.2 465.9;" xml:space="preserve">
<style type="text/css">
	.st0{fill:#FFFFFF;}
</style>
<g>
	<g>
		<polygon points="14.4,5.4 14.4,26.7 98.5,20.5 8,124.2 8,136.3 127.4,136.3 127.4,114.5 34.9,121.3 125.1,17.2 125.1,5.4 		"/>
		<polygon class="st0" points="115.6,18.4 108.2,19 17.7,123.1 25.3,122.3 		"/>
	</g>
	<g>
		<polygon points="170.1,122.1 170.1,76.4 244.9,76.4 244.9,59.9 170.1,59.9 170.1,20.7 254.6,25.9 254.6,5.4 151.7,5.4 
			151.7,136.3 259.3,136.3 259.3,114.9 		"/>
		<polygon class="st0" points="158.2,123.5 163.5,122.9 163.5,19.9 158.2,19.5 		"/>
	</g>
	<g>
		<rect x="284.1" y="5.4" width="18.4" height="130.9"/>
		<rect x="290.7" y="19.4" class="st0" width="5.2" height="102.9"/>
	</g>
	<g>
		<polygon points="324,26.9 376.4,19.2 376.4,136.3 394.8,136.3 394.8,19.2 447.5,26.9 447.5,5.4 324,5.4 		"/>
		<rect x="382.9" y="18.8" class="st0" width="5.2" height="103.5"/>
	</g>
	<g>
		<path d="M62.7,164.3c-29.9,0-51.2,12.4-51.2,34.9c0,23.1,14.9,33,54.7,40.7c35.1,7,41.1,12.4,41.1,23.1
			c0,10.9-11.1,19.2-36.4,19.2c-33,0-42.7-11.1-46.1-29.3l-19.6,5.4c6.6,27.9,27.7,40.3,64.4,40.3c38.4,0,57-14,57-38.4
			c0-21.5-14-29.9-58.7-38.6c-32-6.2-37-14.2-37-24c0-9.5,9.3-17.6,33.9-17.6c26.4,0,35.1,12.4,37.8,28.7l20-4.5
			C119.7,185.1,105.5,164.3,62.7,164.3z"/>
		<path class="st0" d="M19,199.8c0,15.7,6,24.2,45,32.8c39.7,8.7,49.6,14,49.6,29.1l5.2-1.6c0-18.2-15.3-24.8-53.5-32.8
			c-39.2-8.1-41.1-17.4-41.1-28.7L19,199.8z"/>
	</g>
	<g>
		<polygon points="129.8,187.6 182.1,179.8 182.1,296.9 200.5,296.9 200.5,179.8 253.2,187.6 253.2,166.1 129.8,166.1 		"/>
		<rect x="188.7" y="179.4" class="st0" width="5.2" height="103.5"/>
	</g>
	<g>
		<rect x="274.8" y="166.1" width="18.4" height="130.9"/>
		<rect x="281.4" y="180" class="st0" width="5.2" height="102.9"/>
	</g>
	<g>
		<polygon points="342.6,296.9 342.6,244.2 416.3,244.2 416.3,227.7 342.6,227.7 342.6,181.8 423.7,187.2 423.7,166.1 324.2,166.1 
			324.2,296.9 		"/>
		<polygon class="st0" points="330.8,283 336,283 336,180.6 330.8,180.2 		"/>
	</g>
	<g>
		<polygon points="433.2,187.6 485.5,179.8 485.5,296.9 503.9,296.9 503.9,179.8 556.7,187.6 556.7,166.1 433.2,166.1 		"/>
		<rect x="492.1" y="179.4" class="st0" width="5.2" height="103.5"/>
	</g>
	<g>
		<path d="M572.2,166.1v75.6c0,35.5,21.3,58.2,56.8,58.2c43.8,0,61.3-26,61.3-54.5v-79.3h-18.4v75.2c0,26.8-14.2,42.3-39.9,42.3
			c-30.8,0-41.3-19-41.3-43.6v-73.9H572.2z"/>
		<path class="st0" d="M578.8,181.8v55.4c0,24.8,4.1,33.7,15.9,45l3.3-4.7c-8.9-8.1-13.8-15.1-13.8-40.1v-55.6H578.8z"/>
	</g>
	<g>
		<polygon points="715.2,296.9 732.9,296.9 732.9,186.2 733.3,186.2 807.1,296.9 834.1,296.9 834.1,166.1 816.4,166.1 816.4,277.7 
			816.1,277.7 742.4,166.1 715.2,166.1 		"/>
		<polygon class="st0" points="740.6,185.6 802.7,277.9 809.1,277.9 746.8,185.6 		"/>
	</g>
	<g>
		<path d="M853.9,230.4c0,39,26.4,68.2,67.5,68.2c24.6,0,42.3-10.9,52.2-26.8l-4.3,25h18.4v-67.3h-64.9V245H971
			c-4.5,21.7-21.3,38-49.8,38c-25.6,0-48.1-19-48.1-51.8c0-25.8,16.3-51.2,48.5-51.2c21.9,0,40.1,10.9,46.5,31.4l17.1-6.6
			c-7.9-26.6-30.8-40.5-63-40.5C882.6,164.3,853.9,193.2,853.9,230.4z"/>
		<path class="st0" d="M899.6,173.2c-25.6,8.9-40.3,34.7-38.8,63.2l5,0.6c-1.7-28.5,13.2-52,36.8-59.5L899.6,173.2z"/>
	</g>
	<g>
		<path d="M18.7,457.6h60.1c40.3,0,53.7-18.4,53.7-38.8c0-19.6-10.3-27.7-26.9-31.6c10.3-3.7,21.3-11.1,21.3-28.1
			c0-24.6-20.2-32.4-50.4-32.4H18.7V457.6z M37.1,381.2v-38.6h35.7c24.6,0,35.3,4.5,35.3,18.2c0,14.2-9.3,20.4-26.9,20.4H37.1z
			 M37.1,441.7v-39.6l47.3-5.4c14.2,0,28.9,4.5,28.9,21.5c0,19-15.5,23.5-37.4,23.5H37.1z"/>
		<rect x="25.3" y="342.6" class="st0" width="5.2" height="99.1"/>
	</g>
	<g>
		<path d="M149.7,326.7v75.6c0,35.5,21.3,58.2,56.8,58.2c43.8,0,61.3-26,61.3-54.5v-79.3h-18.4V402c0,26.8-14.2,42.3-39.9,42.3
			c-30.8,0-41.3-19-41.3-43.6v-73.9H149.7z"/>
		<path class="st0" d="M156.3,342.4v55.4c0,24.8,4.1,33.7,15.9,45l3.3-4.7c-8.9-8.1-13.8-15.1-13.8-40.1v-55.6H156.3z"/>
	</g>
	<g>
		<path d="M350.2,340.9c22.1,0,35.7,14.5,40.1,33.7l19-6c-6.6-26.4-26.8-43.6-58.4-43.6c-39.7,0-65.5,29.9-65.5,66.5
			c0,36.3,19.4,67.9,66.1,67.9c38.6,0,58-28.3,60.9-51.4l-19-5c-2.9,26-19.6,40.7-41.5,40.7c-28.7,0-47.3-20-47.3-51.4
			C304.6,364.7,320.9,340.9,350.2,340.9z"/>
		<path class="st0" d="M329.6,334.1c-24.4,9.7-38.8,33.9-37.2,63.6l5.2,0.2c-1.6-29.1,12-51.4,34.5-59.7L329.6,334.1z"/>
	</g>
	<g>
		<polygon points="450.8,443.4 450.8,397.7 525.6,397.7 525.6,381.2 450.8,381.2 450.8,342 535.3,347.3 535.3,326.7 432.4,326.7 
			432.4,457.6 540,457.6 540,436.3 		"/>
		<polygon class="st0" points="439,444.8 444.2,444.2 444.2,341.3 439,340.9 		"/>
	</g>
	<g>
		<path d="M560.9,457.6h18.4v-53.1l47.7-6.2l27.3,59.3h21.3l-30.8-61.8c17.4-4.8,26.6-17.4,26.6-35.5c0-23.3-20.7-33.5-49.4-33.5
			h-61.1V457.6z M579.3,382.8v-39.2h43c20.2,0,29.9,6,29.9,17.6c0,15.7-10.7,21.5-32,21.5H579.3z"/>
		<rect x="567.5" y="343.6" class="st0" width="5.2" height="100"/>
	</g>
	<g>
		<rect x="697.4" y="326.7" width="18.4" height="130.9"/>
		<rect x="704" y="340.7" class="st0" width="5.2" height="102.9"/>
	</g>
	<g>
		<path d="M744.5,326.7v75.6c0,35.5,21.3,58.2,56.8,58.2c43.8,0,61.3-26,61.3-54.5v-79.3h-18.4V402c0,26.8-14.2,42.3-39.9,42.3
			c-30.8,0-41.3-19-41.3-43.6v-73.9H744.5z"/>
		<path class="st0" d="M751.1,342.4v55.4c0,24.8,4.1,33.7,15.9,45l3.3-4.7c-8.9-8.1-13.8-15.1-13.8-40.1v-55.6H751.1z"/>
	</g>
	<g>
		<path d="M933,325c-26.2,0-48.7,12.4-48.7,34.7c0,22.5,15.7,33,51.4,40.5c31,6.6,38.2,12.4,38.2,23.3c0,11.1-10.1,19.6-33.3,19.6
			c-29.5,0-39.6-11.1-43-29.5l-19.6,5.4c6.6,27.9,27.7,40.3,61.5,40.3c34.3,0,53.7-14.3,53.7-38.6c0-21.9-14.3-29.9-54.7-38.4
			c-29.7-6.2-34.9-14.9-34.9-24c0-9.5,9.5-17.8,31.2-17.8c23.5,0,31.8,12.4,34.3,28.9l20-4.5C986.3,345.7,972.3,325,933,325z"/>
		<path class="st0" d="M891.3,360.3c0,13.6,5.8,24,43,32.8c37.6,8.7,46.3,14.3,46.9,28.9l5.2-1.4c0-18.2-14.9-24.2-51-32.6
			c-36.3-8.3-38.8-18.2-38.8-28.9L891.3,360.3z"/>
	</g>
</g>
</svg>
